<svg width="30" height="20" viewBox="0 0 30 20" fill="none" xmlns="http://www.w3.org/2000/svg">
<path d="M29.6395 17.5169C29.5591 17.3683 29.0619 16.1761 26.6692 13.7256C24.1644 11.1595 24.5009 11.5762 27.5179 7.13926C29.3554 4.43708 30.09 2.78689 29.86 2.08144C29.6413 1.40899 28.2899 1.58638 28.2899 1.58638L23.7962 1.61526C23.7962 1.61526 23.4634 1.56576 23.2148 1.72871C22.9737 1.8896 22.8185 2.2609 22.8185 2.2609C22.8185 2.2609 22.1063 4.35251 21.1568 6.13058C19.1548 9.88269 18.3529 10.0807 18.0257 9.84762C17.2649 9.30512 17.4556 7.66525 17.4556 6.50187C17.4556 2.86528 17.9547 1.34917 16.4817 0.95725C15.992 0.827298 15.6331 0.740663 14.3825 0.726224C12.7787 0.707659 11.4198 0.732412 10.6515 1.14702C10.1393 1.42343 9.74489 2.04018 9.98603 2.07525C10.2832 2.11857 10.9562 2.27534 11.3132 2.81165C11.7749 3.50266 11.7581 5.05796 11.7581 5.05796C11.7581 5.05796 12.0235 9.33813 11.1394 9.87031C10.5319 10.2354 9.70003 9.49077 7.91488 6.0852C7.00081 4.34219 6.30919 2.41354 6.30919 2.41354C6.30919 2.41354 6.17647 2.05462 5.93907 1.86279C5.6512 1.6297 5.24744 1.55544 5.24744 1.55544L0.974304 1.58432C0.974304 1.58432 0.333146 1.60495 0.0976191 1.9123C-0.111739 2.18664 0.0807957 2.75183 0.0807957 2.75183C0.0807957 2.75183 3.42678 11.3885 7.21391 15.7429C10.6889 19.7343 14.633 19.4723 14.633 19.4723H16.42C16.42 19.4723 16.9603 19.4063 17.235 19.0783C17.4893 18.7772 17.4799 18.212 17.4799 18.212C17.4799 18.212 17.4444 15.5655 18.5585 15.1757C19.6557 14.792 21.0652 17.7334 22.5587 18.8659C23.6877 19.7219 24.5457 19.5342 24.5457 19.5342L28.5403 19.4723C28.5403 19.4723 30.6302 19.33 29.6395 17.5169Z" fill="white"/>
</svg>
