<svg width="26" height="24" viewBox="0 0 26 24" fill="none" xmlns="http://www.w3.org/2000/svg">
<path fill-rule="evenodd" clip-rule="evenodd" d="M20.7436 0.506836H5.31072C2.8477 0.506836 0.843414 2.4199 0.843414 4.77108V19.5024C0.843414 21.8539 2.8477 23.7671 5.31072 23.7671H20.7436C23.207 23.7671 25.2113 21.8539 25.2113 19.5024V4.77108C25.2113 2.42002 23.207 0.506836 20.7436 0.506836ZM13.0269 19.7939C8.60406 19.7939 5.00527 16.3587 5.00527 12.1365C5.00527 7.91472 8.60406 4.47951 13.0269 4.47951C17.4502 4.47951 21.0489 7.91472 21.0489 12.1365C21.0489 16.3587 17.4502 19.7939 13.0269 19.7939ZM21.3071 6.0629C20.2599 6.0629 19.4085 5.25014 19.4085 4.25119C19.4085 3.25212 20.2599 2.43937 21.3071 2.43937C22.3536 2.43937 23.205 3.25212 23.205 4.25119C23.205 5.25026 22.3536 6.0629 21.3071 6.0629Z" fill="white"/>
<path fill-rule="evenodd" clip-rule="evenodd" d="M13.0269 7.7156C10.4736 7.7156 8.3944 9.69935 8.3944 12.1365C8.3944 14.5747 10.4736 16.5589 13.0269 16.5589C15.5811 16.5589 17.6588 14.5747 17.6588 12.1365C17.6588 9.69935 15.5811 7.7156 13.0269 7.7156Z" fill="white"/>
</svg>
