<svg width="33" height="39" viewBox="0 0 33 39" fill="none" xmlns="http://www.w3.org/2000/svg">
<path d="M20.3976 26.8958C20.3964 26.6959 20.3372 26.4877 20.2627 26.3007C20.1632 26.0548 19.9502 25.9325 19.6828 25.9066C19.3692 25.8761 19.1183 26.0019 18.891 26.2019C18.7999 26.2807 18.7585 26.3983 18.7585 26.3983L18.7632 32.9028C18.7632 32.9028 18.8177 32.9757 18.8259 32.9851C19.0106 33.1839 19.226 33.3415 19.5017 33.398C19.9561 33.4909 20.2769 33.3027 20.3656 32.8839C20.3881 32.7793 20.4011 32.6711 20.4011 32.564C20.4035 30.6738 20.407 28.7848 20.3976 26.8958ZM20.3976 26.8958C20.3964 26.6959 20.3372 26.4877 20.2627 26.3007C20.1632 26.0548 19.9502 25.9325 19.6828 25.9066C19.3692 25.8761 19.1183 26.0019 18.891 26.2019C18.7999 26.2807 18.7585 26.3983 18.7585 26.3983L18.7632 32.9028C18.7632 32.9028 18.8177 32.9757 18.8259 32.9851C19.0106 33.1839 19.226 33.3415 19.5017 33.398C19.9561 33.4909 20.2769 33.3027 20.3656 32.8839C20.3881 32.7793 20.4011 32.6711 20.4011 32.564C20.4035 30.6738 20.407 28.7848 20.3976 26.8958ZM27.5492 17.3226C19.9905 17.1615 12.4282 17.1615 4.8683 17.3226C2.24576 17.3779 0.148682 19.5092 0.148682 22.1169V33.8508C0.148682 36.4596 2.24576 38.591 4.8683 38.6462C12.4282 38.8074 19.9905 38.8074 27.5492 38.6462C30.1729 38.591 32.27 36.4596 32.27 33.8508V22.1169C32.27 19.5093 30.1729 17.3779 27.5492 17.3226ZM7.08845 34.9201H4.90853V22.6722H2.65169V20.6232H9.35003V22.6675H7.08845V34.9201ZM14.8898 29.8364V34.9212H12.9596V33.7591C12.8897 33.8332 12.8507 33.8731 12.814 33.9143C12.3986 34.3801 11.9276 34.7682 11.3264 34.9741C11.0329 35.0741 10.7311 35.1082 10.4222 35.0552C10.0009 34.9858 9.71809 34.7447 9.54767 34.3636C9.38909 34.0119 9.34885 33.6356 9.34767 33.2568C9.34293 31.8571 9.3453 24.4493 9.3453 24.3776H11.2708C11.2743 24.4422 11.2814 29.7599 11.2826 32.3535C11.2826 32.4946 11.2838 32.6393 11.3122 32.7769C11.3832 33.1251 11.6519 33.2745 11.9891 33.1521C12.3773 33.011 12.6732 32.7452 12.9217 32.4264C12.9584 32.3805 12.9584 32.2982 12.9584 32.2323V24.3658L14.8898 24.3611C14.8898 24.3612 14.8898 28.0744 14.8898 29.8364ZM22.2331 33.9049C21.9751 34.6765 21.4071 35.0694 20.5905 35.0611C19.9266 35.0552 19.3881 34.7929 18.9443 34.3142C18.8946 34.2613 18.7573 34.1166 18.7573 34.1166V34.9188H16.8235V20.6219H18.7573C18.7573 22.1439 18.7573 25.3279 18.7573 25.3279C18.7573 25.3279 18.8662 25.1115 18.9656 24.9998C19.265 24.6669 19.6295 24.4093 20.0792 24.2964C20.8213 24.1117 21.6769 24.3399 22.084 25.2021C22.3242 25.7114 22.3917 26.2548 22.3917 26.8076C22.3952 28.806 22.3952 30.8044 22.3929 32.8028C22.3917 33.1768 22.3526 33.5463 22.2331 33.9049ZM29.3753 33.5028C29.0403 34.4778 28.348 35.0189 27.3326 35.1671C26.703 35.2588 26.0793 35.2459 25.4888 34.9801C24.6805 34.6178 24.2225 33.9627 24.026 33.1287C23.9349 32.7406 23.8899 32.3336 23.8852 31.9349C23.8698 30.3693 23.8769 28.8026 23.8805 27.2371C23.8817 26.4184 24.0781 25.6633 24.6426 25.0364C25.2864 24.32 26.1101 24.053 27.051 24.113C27.3338 24.1307 27.6226 24.1765 27.8912 24.2648C28.806 24.5635 29.2948 25.2445 29.4865 26.1479C29.5599 26.496 29.5871 26.8571 29.593 27.2135C29.6084 28.0486 29.5871 29.8894 29.5871 29.8894H25.8841V32.5277C25.8841 33.0017 26.2699 33.3851 26.7468 33.3851C27.2226 33.3851 27.6084 33.0017 27.6084 32.5277V31.1715H29.5977C29.5977 31.1714 29.6273 32.7723 29.3753 33.5028ZM27.6084 26.7724C27.6084 26.2996 27.2226 25.915 26.7468 25.915C26.2699 25.915 25.8841 26.2996 25.8841 26.7724V28.2533H27.6084V26.7724ZM20.2627 26.3007C20.1632 26.0548 19.9502 25.9326 19.6828 25.9068C19.3692 25.8762 19.1183 26.0019 18.891 26.2019C18.7999 26.2807 18.7585 26.3984 18.7585 26.3984L18.7632 32.9029C18.7632 32.9029 18.8177 32.9758 18.8259 32.9852C19.0106 33.184 19.226 33.3416 19.5017 33.3981C19.9561 33.491 20.2769 33.3027 20.3656 32.8839C20.3881 32.7793 20.4011 32.6711 20.4011 32.564C20.4035 30.6738 20.407 28.7848 20.3976 26.8958C20.3964 26.6958 20.3372 26.4876 20.2627 26.3007Z" fill="white"/>
<path d="M25.2057 3.75448L25.2051 14.3691H23.2261L23.2285 13.2288C23.0097 13.443 22.8229 13.6431 22.6177 13.8228C22.2539 14.1413 21.8419 14.3788 21.3598 14.4725C20.6198 14.6164 19.9895 14.3838 19.7535 13.6221C19.675 13.3684 19.6275 13.0949 19.6255 12.8301V3.75448H21.5895V11.8493C21.5895 11.9566 21.5982 12.065 21.6171 12.1702C21.6768 12.5038 21.9248 12.6608 22.248 12.5494C22.642 12.4139 22.9426 12.1428 23.1976 11.8233C23.2338 11.7777 23.2273 11.6925 23.2273 11.6256V3.75448H25.2057Z" fill="white"/>
<path d="M8.83748 5.59902C8.40789 3.7993 7.50787 0 7.50787 0H5.25588C5.25588 0 6.98609 5.70312 7.75983 8.24657C7.78764 8.33855 7.80042 8.43841 7.80042 8.53474L7.79959 14.3669H9.8762L9.87537 8.53474C9.87537 8.43841 9.88815 8.33855 9.91596 8.24657C10.6897 5.70312 12.4199 0 12.4199 0H10.1679C10.1679 0 9.26779 3.7993 8.83831 5.59902H8.83748Z" fill="white"/>
<path d="M15.1304 3.48878C13.5654 3.48878 12.2967 4.74968 12.2967 6.30511V11.8167C12.2967 13.3722 13.5654 14.6331 15.1304 14.6331C16.6954 14.6331 17.964 13.3722 17.964 11.8167V6.30511C17.9642 4.74968 16.6954 3.48878 15.1304 3.48878ZM15.9481 11.928C15.9481 12.3761 15.5813 12.7407 15.1305 12.7407C14.6797 12.7407 14.3128 12.3761 14.3128 11.928V6.19372C14.3128 5.74558 14.6797 5.38107 15.1305 5.38107C15.5813 5.38107 15.9481 5.7457 15.9481 6.19372V11.928Z" fill="white"/>
</svg>
