<svg width="16" height="28" viewBox="0 0 16 28" fill="none" xmlns="http://www.w3.org/2000/svg">
<path d="M15.1302 0.0821775L11.4108 0.076416C7.23224 0.076416 4.53185 2.75121 4.53185 6.89115V10.0332H0.792174C0.469021 10.0332 0.207336 10.2861 0.207336 10.5981V15.1506C0.207336 15.4626 0.46932 15.7152 0.792174 15.7152H4.53185V27.2026C4.53185 27.5145 4.79353 27.7672 5.11669 27.7672H9.9959C10.319 27.7672 10.5807 27.5143 10.5807 27.2026V15.7152H14.9533C15.2764 15.7152 15.5381 15.4626 15.5381 15.1506L15.5399 10.5981C15.5399 10.4483 15.4781 10.3049 15.3686 10.1988C15.2591 10.0928 15.1099 10.0332 14.9548 10.0332H10.5807V7.36965C10.5807 6.08944 10.8967 5.43954 12.6241 5.43954L15.1296 5.43867C15.4525 5.43867 15.7142 5.18574 15.7142 4.87404V0.646807C15.7142 0.335397 15.4528 0.0827537 15.1302 0.0821775Z" fill="white"/>
</svg>
