<svg width="296" height="197" viewBox="0 0 296 197" fill="none" xmlns="http://www.w3.org/2000/svg">
<path d="M50.1501 164.283C50.3503 164.283 50.4504 164.383 50.5505 164.484C50.6506 164.585 50.7507 164.686 50.7507 164.888V179.529C50.7507 179.731 50.6506 179.832 50.5505 179.933C50.4504 180.034 50.3503 180.135 50.1501 180.135H46.6465C46.5464 180.135 46.3462 180.034 46.2461 179.933C46.146 179.832 46.0459 179.731 46.0459 179.529V172.562C44.5444 174.683 43.7436 175.995 43.4433 176.298C43.143 176.702 42.9428 176.904 42.6425 176.904H41.1409C40.8406 176.904 40.5403 176.702 40.24 176.298L37.6374 172.562V179.529C37.6374 179.731 37.5373 179.832 37.4372 179.933C37.3371 180.034 37.237 180.135 37.0368 180.135H33.5332C33.333 180.135 33.2329 180.034 33.1328 179.933C33.0327 179.832 32.9326 179.731 32.9326 179.529V164.888C32.9326 164.787 33.0327 164.585 33.1328 164.484C33.2329 164.383 33.333 164.283 33.5332 164.283H36.1359C36.4362 164.283 36.7365 164.484 36.9367 164.787L41.6415 171.351C44.6445 167.211 46.2461 164.989 46.4463 164.787C46.7466 164.484 46.9468 164.283 47.2471 164.283H50.1501Z" fill="#FEFEFE"/>
<path d="M64.3611 176.197C64.5613 176.197 64.6614 176.298 64.7615 176.399C64.8616 176.5 64.9617 176.601 64.9617 176.803V179.529C64.9617 179.731 64.8616 179.832 64.7615 179.933C64.6614 180.034 64.5613 180.135 64.3611 180.135H54.0506C53.8504 180.135 53.7503 180.034 53.6502 179.933C53.5501 179.832 53.45 179.731 53.45 179.529V164.888C53.45 164.686 53.5501 164.585 53.6502 164.484C53.7503 164.383 53.8504 164.283 54.0506 164.283H64.261C64.3611 164.283 64.5613 164.383 64.6614 164.484C64.7615 164.585 64.8616 164.686 64.8616 164.888V167.615C64.8616 167.716 64.7615 167.918 64.6614 168.018C64.5613 168.119 64.4612 168.22 64.261 168.22H58.0547V170.341H63.0598C63.1599 170.341 63.3601 170.442 63.4602 170.543C63.5603 170.644 63.6604 170.745 63.6604 170.947V173.673C63.6604 173.875 63.5603 173.976 63.4602 174.077C63.3601 174.178 63.26 174.279 63.0598 174.279H58.0547V176.399H64.261L64.3611 176.197Z" fill="#FEFEFE"/>
<path d="M74.2734 173.271C74.0732 174.281 73.873 175.291 73.5727 176.199H77.5767V168.122H74.7739C74.6738 170.242 74.5737 171.959 74.2734 173.271ZM83.4827 176.199C83.6829 176.199 83.783 176.3 83.8831 176.401C83.9832 176.502 84.0833 176.603 84.0833 176.805V182.864C84.0833 183.065 83.9832 183.166 83.8831 183.267C83.783 183.368 83.6829 183.469 83.4827 183.469H79.9792C79.8791 183.469 79.6789 183.368 79.5788 183.267C79.4787 183.166 79.3785 183.065 79.3785 182.864V180.137H71.3704V182.864C71.3704 183.065 71.2703 183.166 71.1702 183.267C71.0701 183.368 70.97 183.469 70.7698 183.469H67.2663C67.0661 183.469 66.966 183.368 66.8659 183.267C66.7658 183.166 66.6657 183.065 66.6657 182.864V176.805C66.6657 176.603 66.7658 176.502 66.8659 176.401C66.966 176.3 67.0661 176.199 67.2663 176.199H68.7678C69.0681 175.19 69.3684 174.281 69.5686 173.271C69.6687 172.463 69.7688 171.353 69.8689 169.939C69.969 168.525 69.969 167.314 69.969 166.304V164.789C69.969 164.689 70.0691 164.487 70.1692 164.386C70.2693 164.285 70.3694 164.184 70.5696 164.184H81.4807C81.6809 164.184 81.781 164.285 81.8811 164.386C81.9812 164.487 82.0813 164.588 82.0813 164.789V176.098H83.3826L83.4827 176.199Z" fill="#FEFEFE"/>
<path d="M92.895 176.298C93.3955 176.298 93.6958 176.197 93.9961 175.894C94.2964 175.692 94.3965 175.389 94.3965 174.986C94.3965 174.582 94.2964 174.279 93.9961 174.077C93.6958 173.875 93.3955 173.774 92.895 173.774H90.9931V176.298H92.895ZM93.6958 169.23C93.6958 168.927 93.4956 168.624 93.1953 168.422C92.895 168.22 92.4946 168.119 91.894 168.119H90.9931V170.644H91.9941C92.5947 170.644 92.9951 170.543 93.2954 170.24C93.5957 169.937 93.6958 169.634 93.6958 169.331V169.23ZM95.5977 171.754V171.855C96.5987 171.855 97.3996 172.259 98.0002 172.966C98.6008 173.673 98.9011 174.481 98.9011 175.288C98.9011 176.803 98.4006 177.914 97.3996 178.823C96.3986 179.63 94.9971 180.135 93.2954 180.135H86.989C86.7888 180.135 86.6887 180.034 86.5886 179.933C86.4885 179.832 86.3884 179.731 86.3884 179.529V164.888C86.3884 164.686 86.4885 164.585 86.5886 164.484C86.6887 164.383 86.7888 164.283 86.989 164.283H92.2944C96.1983 164.283 98.1003 165.696 98.1003 168.523C98.1003 169.129 97.9001 169.836 97.3996 170.442C96.8991 171.149 96.2985 171.553 95.6978 171.754H95.5977Z" fill="#FEFEFE"/>
<path d="M111.914 176.197C112.114 176.197 112.214 176.298 112.314 176.399C112.414 176.5 112.515 176.601 112.515 176.803V179.529C112.515 179.731 112.414 179.832 112.314 179.933C112.214 180.034 112.114 180.135 111.914 180.135H101.603C101.403 180.135 101.303 180.034 101.203 179.933C101.103 179.832 101.003 179.731 101.003 179.529V164.888C101.003 164.686 101.103 164.585 101.203 164.484C101.303 164.383 101.403 164.283 101.603 164.283H111.814C111.914 164.283 112.114 164.383 112.214 164.484C112.314 164.585 112.414 164.686 112.414 164.888V167.615C112.414 167.716 112.314 167.918 112.214 168.018C112.114 168.119 112.014 168.22 111.814 168.22H105.608V170.341H110.613C110.713 170.341 110.913 170.442 111.013 170.543C111.113 170.644 111.213 170.745 111.213 170.947V173.673C111.213 173.875 111.113 173.976 111.013 174.077C110.913 174.178 110.813 174.279 110.613 174.279H105.608V176.399H111.814L111.914 176.197Z" fill="#FEFEFE"/>
<path d="M138.138 179.225C138.238 179.427 138.238 179.629 138.138 179.831C138.038 180.033 137.938 180.033 137.737 180.033H133.833C133.433 180.033 133.033 179.73 132.732 179.225C132.632 179.023 131.731 177.407 129.93 174.075H128.628V179.427C128.628 179.629 128.528 179.73 128.428 179.831C128.328 179.932 128.228 180.033 128.028 180.033H124.524C124.324 180.033 124.224 179.932 124.124 179.831C124.024 179.73 123.923 179.629 123.923 179.427V174.075H122.622C120.92 177.407 120.019 179.023 119.919 179.225C119.519 179.73 119.119 180.033 118.818 180.033H114.914C114.714 180.033 114.614 179.932 114.514 179.831C114.414 179.73 114.414 179.528 114.514 179.225C114.614 179.023 115.215 177.912 116.316 175.792C117.417 173.671 118.118 172.46 118.318 171.955C118.017 171.349 117.517 170.44 117.016 169.33C116.416 168.219 115.915 167.108 115.415 166.199C114.914 165.291 114.714 164.786 114.714 164.685C114.614 164.483 114.614 164.281 114.714 164.18C114.814 164.079 115.014 164.079 115.315 164.079H119.319C119.719 164.079 119.919 164.281 120.12 164.685C120.62 165.796 121.521 167.512 122.822 170.036H124.024V164.685C124.024 164.483 124.124 164.382 124.224 164.281C124.324 164.18 124.424 164.079 124.624 164.079H128.128C128.328 164.079 128.428 164.18 128.528 164.281C128.628 164.382 128.728 164.483 128.728 164.685V170.036H129.93C131.231 167.512 132.132 165.695 132.632 164.685C132.832 164.281 133.133 164.079 133.533 164.079H137.537C137.838 164.079 138.038 164.079 138.138 164.18C138.238 164.281 138.238 164.382 138.138 164.685C138.138 164.786 137.838 165.19 137.437 166.199C136.937 167.108 136.436 168.118 135.836 169.33C135.235 170.44 134.834 171.349 134.534 171.955C135.936 174.681 137.237 177.104 138.338 179.225H138.138Z" fill="#FEFEFE"/>
<path d="M147.149 176.3C147.75 176.3 148.15 176.098 148.451 175.694C148.751 175.291 148.951 174.887 148.951 174.483C148.951 174.079 148.751 173.675 148.451 173.271C148.15 172.867 147.75 172.665 147.149 172.665H145.247V176.098H147.149V176.3ZM147.25 169.03C149.151 169.03 150.553 169.535 151.554 170.545C152.555 171.555 153.055 172.867 153.055 174.483C153.055 176.199 152.555 177.512 151.454 178.522C150.453 179.531 148.951 180.036 147.149 180.036H141.043C140.943 180.036 140.743 179.935 140.643 179.834C140.543 179.733 140.443 179.632 140.443 179.43V164.789C140.443 164.689 140.543 164.487 140.643 164.386C140.743 164.285 140.843 164.184 141.043 164.184H144.547C144.647 164.184 144.847 164.285 144.947 164.386C145.047 164.487 145.147 164.588 145.147 164.789V169.03H147.25Z" fill="#FEFEFE"/>
<path d="M168.667 164.283C168.867 164.283 168.967 164.383 169.067 164.484C169.167 164.585 169.268 164.686 169.268 164.888V179.529C169.268 179.731 169.167 179.832 169.067 179.933C168.967 180.034 168.867 180.135 168.667 180.135H165.163C165.063 180.135 164.863 180.034 164.763 179.933C164.663 179.832 164.563 179.731 164.563 179.529V172.057C161.66 176.5 160.058 178.822 159.758 179.327C159.558 179.63 159.357 179.832 159.157 179.933C158.957 180.034 158.757 180.135 158.457 180.135H155.854C155.654 180.135 155.554 180.034 155.454 179.933C155.353 179.832 155.253 179.731 155.253 179.529V164.888C155.253 164.787 155.353 164.585 155.454 164.484C155.554 164.383 155.654 164.283 155.854 164.283H159.357C159.558 164.283 159.658 164.383 159.758 164.484C159.858 164.585 159.958 164.686 159.958 164.888V172.461L164.963 164.888C165.263 164.484 165.564 164.283 166.064 164.283H168.667Z" fill="#FEFEFE"/>
<path d="M186.99 176.299C188.091 176.299 188.992 175.895 189.792 175.087C190.593 174.279 190.994 173.27 190.994 172.159C190.994 171.048 190.593 170.038 189.792 169.231C188.992 168.423 188.091 168.019 186.99 168.019C185.888 168.019 184.988 168.423 184.187 169.231C183.386 170.038 182.986 171.048 182.986 172.159C182.986 173.27 183.386 174.279 184.187 175.087C184.988 175.895 185.888 176.299 186.99 176.299ZM186.99 163.98C189.292 163.98 191.194 164.788 192.896 166.403C194.597 168.019 195.398 169.938 195.398 172.159C195.398 174.38 194.597 176.299 192.896 177.914C191.194 179.53 189.292 180.338 186.99 180.338C184.687 180.338 182.685 179.53 181.084 177.914C179.482 176.299 178.581 174.38 178.581 172.159C178.581 169.938 179.382 168.019 181.084 166.403C182.685 164.788 184.687 163.98 186.99 163.98Z" fill="#FEFEFE"/>
<path d="M206.505 171.551C206.705 171.551 206.905 171.652 207.205 171.753C207.506 171.854 207.806 172.056 208.106 172.359C208.407 172.662 208.707 172.965 209.007 173.469C209.207 173.974 209.307 174.479 209.307 175.085C209.307 175.994 209.107 176.902 208.707 177.609C208.306 178.316 207.806 178.922 207.205 179.225C206.605 179.629 206.004 179.831 205.303 180.033C204.703 180.235 204.002 180.335 203.402 180.335C202.501 180.335 201.7 180.235 200.999 180.033C200.298 179.831 199.698 179.528 199.297 179.225C198.897 178.922 198.497 178.518 198.196 178.114C197.896 177.71 197.696 177.306 197.596 177.104C197.496 176.801 197.395 176.6 197.395 176.297C197.295 175.792 197.295 175.489 197.395 175.388C197.496 175.287 197.796 175.186 198.196 175.186H200.499C200.699 175.186 200.799 175.186 200.899 175.287C200.999 175.388 201.099 175.489 201.199 175.691C201.299 175.893 201.399 175.994 201.5 176.196C201.9 176.499 202.601 176.701 203.602 176.701C204.202 176.701 204.603 176.6 205.003 176.297C205.404 175.994 205.504 175.59 205.504 174.984C205.504 173.873 204.703 173.368 203.101 173.368H201.7C201.5 173.368 201.399 173.267 201.299 173.166C201.199 173.066 201.099 172.965 201.099 172.763V170.743C201.099 170.541 201.199 170.44 201.299 170.339C201.399 170.238 201.5 170.137 201.7 170.137H202.2C203.702 170.137 204.403 169.632 204.403 168.724C204.403 168.32 204.302 168.118 204.002 167.815C203.702 167.613 203.402 167.512 203.101 167.512C202.4 167.512 201.9 167.714 201.6 168.219C201.5 168.421 201.399 168.522 201.299 168.522C201.199 168.522 200.999 168.623 200.699 168.623H198.497C198.196 168.623 197.996 168.522 197.896 168.421C197.796 168.32 197.796 168.118 197.796 167.815C197.896 166.906 198.196 166.199 198.797 165.594C199.397 164.988 199.998 164.584 200.799 164.382C201.6 164.18 202.401 164.079 203.301 164.079C204.102 164.079 204.903 164.18 205.704 164.483C206.405 164.685 207.105 165.19 207.606 165.796C208.206 166.401 208.407 167.209 208.407 168.118C208.407 169.632 207.806 170.844 206.605 171.652V171.753L206.505 171.551Z" fill="#FEFEFE"/>
<path d="M222.424 176.197C222.624 176.197 222.724 176.298 222.825 176.399C222.925 176.5 223.025 176.601 223.025 176.803V179.529C223.025 179.731 222.925 179.832 222.825 179.933C222.724 180.034 222.624 180.135 222.424 180.135H212.114C211.914 180.135 211.813 180.034 211.713 179.933C211.613 179.832 211.513 179.731 211.513 179.529V164.888C211.513 164.686 211.613 164.585 211.713 164.484C211.813 164.383 211.914 164.283 212.114 164.283H222.324C222.424 164.283 222.624 164.383 222.724 164.484C222.825 164.585 222.925 164.686 222.925 164.888V167.615C222.925 167.716 222.825 167.918 222.724 168.018C222.624 168.119 222.524 168.22 222.324 168.22H216.118V170.341H221.123C221.223 170.341 221.423 170.442 221.523 170.543C221.623 170.644 221.723 170.745 221.723 170.947V173.673C221.723 173.875 221.623 173.976 221.523 174.077C221.423 174.178 221.323 174.279 221.123 174.279H216.118V176.399H222.324L222.424 176.197Z" fill="#FEFEFE"/>
<path d="M231.435 172.564C232.036 172.564 232.436 172.463 232.837 172.261C233.237 172.059 233.537 171.858 233.737 171.555C233.938 171.252 234.038 171.05 234.138 170.848C234.238 170.646 234.238 170.444 234.238 170.141C234.238 169.636 234.038 169.131 233.637 168.727C233.237 168.324 232.536 168.021 231.435 168.021H230.234V172.463H231.535L231.435 172.564ZM231.735 164.184C234.038 164.184 235.74 164.789 237.041 165.9C238.342 167.011 238.943 168.424 238.943 170.141C238.943 170.949 238.843 171.757 238.542 172.463C238.242 173.17 237.842 173.877 237.341 174.483C236.841 175.089 236.04 175.593 235.139 175.896C234.138 176.199 233.037 176.401 231.735 176.401H230.234V179.43C230.234 179.632 230.134 179.733 230.034 179.834C229.934 179.935 229.834 180.036 229.633 180.036H226.13C226.03 180.036 225.829 179.935 225.729 179.834C225.629 179.733 225.529 179.632 225.529 179.43V164.789C225.529 164.689 225.629 164.487 225.729 164.386C225.829 164.285 225.93 164.184 226.13 164.184H231.735Z" fill="#FEFEFE"/>
<path d="M245.645 174.079H248.047C247.547 172.463 247.146 171.252 246.846 170.343C246.446 171.757 246.045 173.069 245.645 174.079ZM254.754 179.229C254.854 179.531 254.854 179.632 254.754 179.834C254.654 179.935 254.554 180.036 254.354 180.036H250.75C250.45 180.036 250.25 179.935 250.149 179.834C250.049 179.733 249.949 179.531 249.749 179.229C249.649 179.027 249.549 178.623 249.349 177.916H244.544C244.344 178.522 244.143 179.027 244.143 179.229C244.043 179.531 243.943 179.733 243.743 179.834C243.643 179.935 243.443 180.036 243.142 180.036H239.539C239.338 180.036 239.238 179.935 239.138 179.834C239.038 179.733 239.038 179.531 239.138 179.229C239.138 179.229 239.639 177.916 240.54 175.493C241.441 173.069 242.342 170.646 243.142 168.424C243.943 166.102 244.444 164.89 244.544 164.789C244.644 164.386 244.944 164.184 245.244 164.184H249.048C249.249 164.184 249.349 164.184 249.449 164.285C249.549 164.386 249.649 164.487 249.749 164.689C249.849 164.89 250.65 167.213 252.452 171.959C254.153 176.603 255.054 179.027 255.054 179.128L254.754 179.229Z" fill="#FEFEFE"/>
<path d="M251.053 149.943C230.432 146.813 209.711 144.793 188.99 143.279C168.269 141.966 147.548 141.158 126.727 141.259C116.317 141.158 106.006 141.461 95.5957 141.764C85.1851 142.067 74.8747 142.673 64.4641 143.38C43.7431 144.894 23.0221 147.015 2.40122 150.145C22.5216 144.288 43.2426 140.653 63.9636 138.23C84.7847 135.807 105.706 134.696 126.627 134.595C137.138 134.595 147.548 134.898 158.059 135.403C168.47 136.11 178.98 136.816 189.391 138.129C210.212 140.552 230.933 144.086 250.953 149.943H251.053Z" fill="#FEFEFE"/>
<path d="M251.05 150.043C243.743 149.134 236.536 148.225 229.228 147.62C221.921 146.913 214.613 146.408 207.306 146.004C192.691 145.196 178.076 144.691 163.462 144.792C148.847 144.792 134.232 145.196 119.617 146.004C112.31 146.408 105.002 147.014 97.695 147.721C90.3876 148.326 83.0802 149.235 75.8729 150.144C82.9801 148.427 90.2875 147.216 97.4948 146.105C104.802 145.095 112.11 144.186 119.417 143.48C134.032 142.066 148.747 141.46 163.462 141.46C178.177 141.46 192.891 142.066 207.506 143.48C214.814 144.186 222.121 144.994 229.429 146.105C236.736 147.216 243.943 148.427 251.05 150.144V150.043Z" fill="#FEFEFE"/>
<path d="M0.100101 151.156C22.8231 139.645 47.0477 131.163 71.8728 125.408C96.7981 119.552 122.424 116.623 148.05 116.623C173.676 116.623 199.302 119.552 224.227 125.408C249.153 131.163 273.377 139.746 296 151.257C271.575 144.391 247.151 138.534 222.425 134.596C197.7 130.659 172.875 128.639 148.05 128.639C123.125 128.538 98.2996 130.759 73.5746 134.596C48.8495 138.534 24.4248 144.391 0 151.257L0.100101 151.156Z" fill="#FEFEFE"/>
<path d="M148.449 14.6409C148.449 14.6409 148.649 12.9244 149.15 11.9147C149.45 11.4098 150.652 10.2991 150.952 9.49132C151.252 8.68354 152.053 6.76506 152.854 6.56312C153.655 6.36117 155.156 7.87576 155.657 9.08743C156.157 10.4001 156.858 13.3283 156.557 15.1458C156.357 16.4584 154.756 19.1847 154.355 19.0837C154.055 18.9827 148.85 14.5399 148.349 14.5399L148.449 14.6409Z" fill="#FEFEFE"/>
<path d="M187.989 121.468C188.59 121.367 202.504 127.122 204.506 122.275C207.108 119.044 212.314 106.827 214.115 87.137C214.816 79.665 212.013 70.2746 211.613 69.3659C208.61 61.591 199.901 49.7772 196.297 45.6374C178.78 25.5439 159.06 20.0914 158.159 20.0914C157.258 20.0914 157.258 20.5963 157.758 22.0099C159.26 23.4235 162.163 25.7458 163.865 28.4721C164.265 29.7847 165.166 34.5304 165.366 35.0353C168.77 39.4781 171.973 41.5985 174.575 42.7092C175.476 43.0121 174.876 44.3247 174.676 45.1325C174.075 47.2529 170.171 51.1909 167.969 51.9986C165.666 52.8064 164.665 52.8064 163.865 53.4122C163.064 54.0181 162.864 55.1288 162.964 55.6336C163.164 56.0375 170.171 65.125 171.272 69.063C172.473 73.4048 173.274 80.0689 173.074 86.0263C173.074 89.6613 173.674 95.9216 173.775 96.3255C173.975 97.1332 176.778 98.5468 177.879 98.4459C179.08 98.4459 182.684 97.7391 182.684 97.7391C182.684 97.7391 184.085 106.928 184.586 108.139C185.086 109.25 186.487 112.683 187.088 113.39C187.689 114.097 186.087 116.217 185.987 117.025C185.887 117.833 185.987 119.953 186.588 120.559C187.088 121.064 187.589 121.468 188.089 121.367L187.989 121.468Z" fill="#FEFEFE"/>
<path d="M94.0936 110.363C92.0916 109.252 82.9823 97.4382 81.3807 93.3993C80.2796 88.2497 79.8792 71.6903 86.9864 55.0299C87.1866 54.626 86.7862 52.6065 86.6861 50.5871C86.4859 46.7501 86.8863 41.1967 89.3888 33.9267C90.9905 29.08 94.0936 25.2431 98.7984 20.0935C105.405 12.9244 115.916 11.6118 116.316 11.7128C116.717 11.8138 118.018 11.5108 117.718 10.5011C117.217 8.48167 114.214 0 121.321 0C127.127 0 130.531 7.37097 131.231 9.89528C131.932 12.4196 148.849 11.2079 160.961 29.181C163.264 32.5131 160.06 34.0276 161.962 36.35C162.763 37.2588 169.47 41.4996 171.572 43.0142C173.674 44.6297 167.268 49.8803 162.563 51.1929C161.662 51.4958 160.761 54.1211 158.659 53.9192C156.757 53.8182 149.149 52.1017 147.948 52.6065C146.747 53.1114 147.147 53.7172 147.748 53.9192C148.449 54.1211 157.658 54.3231 158.759 55.6357C159.86 56.9483 163.864 59.5736 167.468 67.9543C170.071 77.0418 172.373 109.353 168.369 117.33C152.753 120.662 147.147 118.239 146.747 117.633C146.447 117.027 145.946 113.695 148.649 112.988C151.352 112.281 149.25 111.069 148.849 110.161C147.748 107.838 148.249 101.174 147.648 99.9625C147.047 98.7509 143.744 95.9236 142.843 93.3993C139.239 92.5915 124.625 90.875 110.911 75.2243C109.009 83.605 109.81 87.24 101.101 94.9139C105.105 98.347 105.105 97.7411 109.109 105.011C107.307 107.334 104.204 111.574 101.801 112.382C99.5992 113.089 96.0956 111.574 94.1937 110.464L94.0936 110.363Z" fill="#FEFEFE"/>
<path d="M107.307 188.922C108.108 188.922 108.908 189.124 109.509 189.427V191.346C109.009 190.942 108.308 190.74 107.607 190.74C106.406 190.74 105.205 191.447 105.205 193.062C105.205 194.577 106.406 195.182 107.607 195.182C108.408 195.182 109.109 194.981 109.609 194.476V196.495C108.908 196.798 108.208 197 107.407 197C105.305 197 103.203 195.788 103.203 193.062C103.203 190.134 105.305 188.922 107.407 188.922H107.307Z" fill="#FEFEFE"/>
<path d="M114.115 196.894V189.119H121.022V196.894H119.02V190.937H116.117V196.894H114.115Z" fill="#FEFEFE"/>
<path d="M128.228 193.966H130.23L129.43 191.745C129.33 191.543 129.33 191.341 129.229 190.937C129.129 191.341 129.129 191.543 129.029 191.745L128.228 193.966ZM125.125 196.894L128.128 189.119H130.331L133.334 196.894H131.231L130.831 195.683H127.628L127.227 196.894H125.125Z" fill="#FEFEFE"/>
<path d="M146.747 190.841C145.445 190.841 144.745 191.749 144.745 192.961C144.745 194.173 145.445 195.082 146.747 195.082C148.048 195.082 148.749 194.173 148.749 192.961C148.749 191.749 148.048 190.841 146.747 190.841ZM146.747 188.922C149.549 188.922 150.851 190.841 150.851 192.961C150.851 195.082 149.449 197 146.747 197C143.944 197 142.642 195.082 142.642 192.961C142.642 190.841 144.044 188.922 146.747 188.922Z" fill="#FEFEFE"/>
<path d="M160.859 189.119V190.937H158.657V196.894H156.655V190.937H154.453V189.119H160.859Z" fill="#FEFEFE"/>
<path d="M170.571 189.119V190.836H167.067V192.048H170.271V193.865H167.067V195.077H170.671V196.894H165.065V189.119H170.571Z" fill="#FEFEFE"/>
<path d="M182.084 189.122V196.897H180.082V190.94H178.38C178.18 194.171 177.78 196.998 175.577 196.998C175.277 196.998 174.977 196.998 174.677 196.796V194.978C174.777 194.978 174.977 195.079 175.177 194.978C176.378 194.877 176.378 191.343 176.578 189.021H182.184L182.084 189.122Z" fill="#FEFEFE"/>
<path d="M188.889 195.077H189.99C190.59 195.077 191.191 194.875 191.191 194.168C191.191 193.461 190.59 193.259 189.99 193.259H188.889V195.077ZM186.887 196.894V189.119H188.889V191.543H189.89C191.792 191.543 193.293 192.149 193.293 194.168C193.293 196.187 191.792 196.793 189.89 196.793H186.787L186.887 196.894Z" fill="#FEFEFE"/>
</svg>
