<svg width="34" height="22" viewBox="0 0 34 22" fill="none" xmlns="http://www.w3.org/2000/svg">
<path d="M31.2059 6.51294L33.9813 3.49336H27.8266C24.7454 1.38863 21.0242 0.162842 16.9999 0.162842C12.9806 0.162842 9.26984 1.39128 6.19372 3.49336H0.0235596L2.79898 6.51294C1.09778 8.06509 0.0312963 10.3009 0.0312963 12.7834C0.0312963 17.4682 3.82956 21.2664 8.51436 21.2664C10.7398 21.2664 12.7674 20.408 14.2811 19.0049L16.9999 21.9653L19.7188 19.0075C21.2325 20.4106 23.2575 21.2664 25.4829 21.2664C30.1677 21.2664 33.9711 17.4682 33.9711 12.7834C33.9736 10.2983 32.9072 8.06257 31.2059 6.51294ZM8.51688 18.5243C5.34566 18.5243 2.7759 15.9546 2.7759 12.7834C2.7759 9.61214 5.34573 7.04231 8.51688 7.04231C11.688 7.04231 14.2578 9.61214 14.2578 12.7834C14.2578 15.9546 11.688 18.5243 8.51688 18.5243ZM17.0025 12.6163C17.0025 8.83861 14.2553 5.59551 10.6293 4.21035C12.59 3.39053 14.741 2.93569 16.9999 2.93569C19.2588 2.93569 21.4122 3.39053 23.3731 4.21035C19.7496 5.59809 17.0025 8.83868 17.0025 12.6163ZM25.4855 18.5243C22.3143 18.5243 19.7445 15.9546 19.7445 12.7834C19.7445 9.61214 22.3143 7.04231 25.4855 7.04231C28.6567 7.04231 31.2265 9.61214 31.2265 12.7834C31.2265 15.9546 28.6567 18.5243 25.4855 18.5243ZM25.4855 9.77145C23.8228 9.77145 22.4762 11.1181 22.4762 12.7808C22.4762 14.4434 23.8228 15.79 25.4855 15.79C27.1482 15.79 28.4948 14.4434 28.4948 12.7808C28.4947 11.1206 27.1482 9.77145 25.4855 9.77145ZM11.5261 12.7834C11.5261 14.446 10.1795 15.7926 8.51688 15.7926C6.85423 15.7926 5.50761 14.446 5.50761 12.7834C5.50761 11.1206 6.85423 9.77403 8.51688 9.77403C10.1795 9.77145 11.5261 11.1206 11.5261 12.7834Z" fill="black"/>
</svg>
