<svg width="58" height="56" viewBox="0 0 58 56" fill="none" xmlns="http://www.w3.org/2000/svg">
<path d="M56.2162 0H1.78381C0.798671 0 0 0.734562 0 1.64062V54.3594C0 55.2654 0.798671 56 1.78381 56H56.2162C57.2013 56 58 55.2654 58 54.3594V1.64062C58 0.734562 57.2013 0 56.2162 0ZM54.4324 52.7188H30.7838V50.6728C30.7838 49.7667 29.9851 49.0322 29 49.0322C28.0149 49.0322 27.2162 49.7667 27.2162 50.6728V52.7188H3.56762V3.28125H27.2162V5.32722C27.2162 6.23328 28.0149 6.96784 29 6.96784C29.9851 6.96784 30.7838 6.23328 30.7838 5.32722V3.28125H54.4324V52.7188Z" fill="#2B451F"/>
<path d="M29 10.2491C28.0149 10.2491 27.2162 10.9837 27.2162 11.8897V15.0146C27.2162 15.9206 28.0149 16.6552 29 16.6552C29.9851 16.6552 30.7838 15.9206 30.7838 15.0146V11.8897C30.7838 10.9835 29.9851 10.2491 29 10.2491Z" fill="#2B451F"/>
<path d="M29 19.9363C28.0149 19.9363 27.2162 20.6709 27.2162 21.577V24.7018C27.2162 25.6079 28.0149 26.3424 29 26.3424C29.9851 26.3424 30.7838 25.6079 30.7838 24.7018V21.577C30.7838 20.6709 29.9851 19.9363 29 19.9363Z" fill="#2B451F"/>
<path d="M29 29.6237C28.0149 29.6237 27.2162 30.3582 27.2162 31.2643V34.3891C27.2162 35.2952 28.0149 36.0298 29 36.0298C29.9851 36.0298 30.7838 35.2952 30.7838 34.3891V31.2643C30.7838 30.3582 29.9851 29.6237 29 29.6237Z" fill="#2B451F"/>
<path d="M29 39.3449C28.0149 39.3449 27.2162 40.0795 27.2162 40.9855V44.1104C27.2162 45.0165 28.0149 45.751 29 45.751C29.9851 45.751 30.7838 45.0165 30.7838 44.1104V40.9855C30.7838 40.0794 29.9851 39.3449 29 39.3449Z" fill="#2B451F"/>
<path d="M23.0094 25.7502L21.5377 12.0417C21.4476 11.2022 20.6798 10.5623 19.7626 10.5623H11.0212C10.104 10.5623 9.33623 11.2022 9.24608 12.0417L7.77456 25.7502C7.39485 29.2865 9.98197 32.435 13.6081 33.1295V42.1564H11.2442C10.2591 42.1564 9.46038 42.891 9.46038 43.797C9.46038 44.7031 10.2591 45.4377 11.2442 45.4377H19.5397C20.5249 45.4377 21.3236 44.7031 21.3236 43.797C21.3236 42.891 20.5249 42.1564 19.5397 42.1564H17.1757V33.1295C20.8001 32.4354 23.3892 29.2882 23.0094 25.7502ZM11.3248 26.0725L12.6376 13.8435H18.1463L19.4591 26.0725C19.672 28.0553 18.0982 29.8237 15.9747 29.9817C15.5882 30.0105 15.1962 30.0104 14.8094 29.9817C12.6861 29.8237 11.112 28.0558 11.3248 26.0725Z" fill="#2B451F"/>
<path d="M36.1352 25.7502H49.0809C50.0661 25.7502 50.8648 25.0156 50.8648 24.1095V12.203C50.8648 11.2969 50.0661 10.5623 49.0809 10.5623H36.1352C35.1501 10.5623 34.3514 11.2969 34.3514 12.203V24.1095C34.3514 25.0156 35.1501 25.7502 36.1352 25.7502ZM37.9191 13.8436H47.2971V22.4689H37.9191V13.8436Z" fill="#2B451F"/>
<path d="M36.1352 32.3127H49.0809C50.0661 32.3127 50.8648 31.5781 50.8648 30.672C50.8648 29.766 50.0661 29.0314 49.0809 29.0314H36.1352C35.1501 29.0314 34.3514 29.766 34.3514 30.672C34.3514 31.5781 35.1501 32.3127 36.1352 32.3127Z" fill="#2B451F"/>
<path d="M36.1352 38.8752H49.0809C50.0661 38.8752 50.8648 38.1406 50.8648 37.2345C50.8648 36.3285 50.0661 35.5939 49.0809 35.5939H36.1352C35.1501 35.5939 34.3514 36.3285 34.3514 37.2345C34.3514 38.1406 35.1501 38.8752 36.1352 38.8752Z" fill="#2B451F"/>
<path d="M49.0809 42.1564H36.1352C35.1501 42.1564 34.3514 42.891 34.3514 43.797C34.3514 44.7031 35.1501 45.4377 36.1352 45.4377H49.0809C50.0661 45.4377 50.8648 44.7031 50.8648 43.797C50.8648 42.891 50.0661 42.1564 49.0809 42.1564Z" fill="#2B451F"/>
</svg>
